<svg width="465" height="176" viewBox="0 0 465 176" fill="none" xmlns="http://www.w3.org/2000/svg">
<g clip-path="url(#clip0_0_468)">
<path d="M0 0V174.41H174.78V0H0ZM15.97 151.64L52.3 93.1L88.62 151.64H15.97ZM52.3 80.58L15.97 22.04H88.62L52.3 80.58ZM127.99 22.04H157.19V80.58H127.99C89.62 79.93 89.6 22.7 127.99 22.04ZM130.02 152.37H100.82V93.83H130.02C168.41 94.48 168.39 151.72 130.02 152.37Z" fill="white"/>
<path d="M389.47 12.76H379.26V22.34H389.47V12.76Z" fill="white"/>
<path d="M464.61 37.23H454.82V47.56H464.61V37.23Z" fill="white"/>
<path d="M267.35 0H257.61V9.58H267.35V0Z" fill="white"/>
<path d="M242.34 0L228.7 36.11H228.41L214.59 0H203.75L222.58 47.33H234.12L252.95 0H242.34Z" fill="white"/>
<path d="M257.67 12.27V47.33H267.35V12.27H257.67Z" fill="white"/>
<path d="M299.12 34.3601C298.23 37.8701 295.72 39.6201 291.6 39.6201C289.03 39.6201 286.96 38.7601 285.36 37.0501C283.77 35.3301 282.97 32.9201 282.97 29.8001C282.97 26.6801 283.76 24.2701 285.33 22.5501C286.91 20.8301 288.99 19.9801 291.6 19.9801C295.45 19.9801 297.9 21.5601 298.94 24.7101H308.68C307.9 20.6201 306.02 17.4101 303.03 15.0701C300.04 12.7401 296.23 11.5601 291.6 11.5601C287.95 11.5601 284.74 12.3101 281.98 13.8101C279.22 15.3101 277.08 17.4301 275.57 20.1501C274.05 22.8801 273.3 26.0901 273.3 29.7901C273.3 33.4901 274.07 36.7101 275.6 39.4301C277.13 42.1601 279.27 44.2701 282.01 45.7701C284.75 47.2801 287.95 48.0201 291.6 48.0201C296.42 48.0201 300.32 46.8201 303.32 44.4001C306.32 41.9901 308.16 38.6401 308.86 34.3501H299.13L299.12 34.3601Z" fill="white"/>
<path d="M326 39.73V19.86H333.98V12.27H325.88V1.75H316.44V12.27H310.32V19.86H316.32V39.61C316.32 42.22 317.01 44.16 318.39 45.42C319.77 46.68 321.7 47.32 324.19 47.32H334.8V39.72H326V39.73Z" fill="white"/>
<path d="M373.39 20.1001C371.87 17.3701 369.71 15.2701 366.92 13.7901C364.12 12.3101 360.82 11.5701 357.01 11.5701C353.2 11.5701 349.83 12.3101 347.01 13.7901C344.19 15.2701 342.01 17.3701 340.46 20.1001C338.9 22.8301 338.12 26.0401 338.12 29.7401C338.12 33.4401 338.9 36.7201 340.46 39.4401C342.01 42.1701 344.2 44.2801 347.01 45.7801C349.83 47.2901 353.14 48.0301 356.95 48.0301C360.76 48.0301 364.06 47.3001 366.86 45.8101C369.66 44.3301 371.83 42.2101 373.36 39.4701C374.9 36.7201 375.67 33.5001 375.67 29.8001C375.67 26.1001 374.91 22.8301 373.4 20.1001H373.39ZM363.65 36.9601C362.09 38.7301 359.86 39.6201 356.94 39.6201C354.02 39.6201 351.72 38.7301 350.15 36.9601C348.58 35.1901 347.79 32.7801 347.79 29.7401C347.79 26.7001 348.58 24.3701 350.15 22.6101C351.72 20.8601 353.99 19.9901 356.94 19.9901C359.89 19.9901 362.09 20.8601 363.65 22.5901C365.2 24.3301 365.98 26.7101 365.98 29.7501C365.98 32.7901 365.2 35.1901 363.65 36.9701V36.9601Z" fill="white"/>
<path d="M403.18 11.8601C400.61 11.8601 398.32 12.4701 396.3 13.7001C394.27 14.9201 392.82 16.7501 391.93 19.1601H389.48V22.0801H384.47V47.3201H393.97V29.6201C393.97 26.8101 394.68 24.5501 396.09 22.8401C397.51 21.1201 399.73 20.2701 402.76 20.2701H406.14V11.8601H403.17H403.18Z" fill="white"/>
<path d="M411.57 12.27V47.33H421.25V12.27H411.57Z" fill="white"/>
<path d="M456.4 15.1001C453.64 12.7501 449.67 11.5601 444.51 11.5601C439.8 11.5601 436.03 12.5501 433.2 14.5401C430.37 16.5201 428.56 19.4401 427.78 23.3001H437.4C438.22 20.5701 440.59 19.2101 444.51 19.2101C449.02 19.2101 451.27 21.1001 451.27 24.8701V26.2201H441.24C436.73 26.2201 433.27 27.1501 430.87 29.0301C428.46 30.9001 427.25 33.5701 427.25 37.0301C427.25 40.4901 428.41 42.9901 430.75 44.9801C433.08 46.9701 436.31 47.9601 440.42 47.9601C443.46 47.9601 445.98 47.4101 448 46.3001C450.02 45.1901 451.63 43.6201 452.84 41.5901H455.29V37.6301H460.53V25.2901C460.53 20.8501 459.15 17.4501 456.39 15.0901L456.4 15.1001ZM451.27 33.1901C451.27 35.2501 450.39 37.0101 448.61 38.4501C446.84 39.8901 444.6 40.6101 441.88 40.6101C440.21 40.6101 438.88 40.2601 437.91 39.5601C436.94 38.8501 436.46 37.8601 436.46 36.5801C436.46 33.9701 438.21 32.6701 441.71 32.6701H451.27V33.2001V33.1901Z" fill="white"/>
<path d="M421.25 0H411.57V9.58H421.25V0Z" fill="white"/>
<path d="M237.89 101.99C235.8 103.47 233.15 104.21 229.95 104.21C225.35 104.21 221.72 102.74 219.06 99.8C216.39 96.86 215.06 92.8 215.06 87.62C215.06 82.44 216.39 78.33 219.06 75.41C221.72 72.49 225.35 71.03 229.95 71.03C233.15 71.03 235.8 71.77 237.89 73.25C239.98 74.73 241.25 76.79 241.71 79.42H252.53C251.67 73.95 249.22 69.64 245.18 66.5C241.14 63.36 236.06 61.78 229.95 61.78C224.87 61.78 220.42 62.84 216.62 64.96C212.83 67.08 209.88 70.07 207.79 73.93C205.7 77.79 204.65 82.36 204.65 87.63C204.65 92.9 205.7 97.4 207.79 101.26C209.89 105.13 212.83 108.12 216.62 110.24C220.42 112.35 224.86 113.42 229.95 113.42C236.06 113.42 241.14 111.86 245.18 108.73C249.22 105.61 251.67 101.29 252.53 95.78H241.71C241.25 98.45 239.98 100.53 237.89 102.01V101.99Z" fill="white"/>
<path d="M292.66 83.73C291.06 80.85 288.78 78.63 285.83 77.07C282.88 75.51 279.39 74.73 275.37 74.73C271.35 74.73 267.79 75.51 264.81 77.07C261.84 78.63 259.53 80.85 257.89 83.73C256.25 86.61 255.43 90 255.43 93.91C255.43 97.82 256.25 101.27 257.89 104.15C259.53 107.03 261.84 109.26 264.81 110.84C267.78 112.42 271.28 113.22 275.3 113.22C279.32 113.22 282.81 112.44 285.76 110.87C288.72 109.31 291 107.08 292.63 104.18C294.24 101.28 295.06 97.88 295.06 93.97C295.06 90.06 294.26 86.6 292.66 83.73ZM282.38 101.53C280.74 103.4 278.39 104.34 275.3 104.34C272.21 104.34 269.79 103.4 268.13 101.53C266.46 99.66 265.64 97.12 265.64 93.92C265.64 90.72 266.47 88.24 268.13 86.39C269.79 84.54 272.18 83.61 275.3 83.61C278.42 83.61 280.74 84.53 282.38 86.36C284.02 88.19 284.84 90.71 284.84 93.92C284.84 97.13 284.02 99.66 282.38 101.53Z" fill="white"/>
<path d="M301.34 60.6599V112.47H311.56V60.6599H301.34Z" fill="white"/>
<path d="M320.04 60.6599V112.47H330.26V60.6599H320.04Z" fill="white"/>
<path d="M374.32 93.17C374.32 87.45 372.68 82.95 369.4 79.66C366.12 76.37 361.58 74.73 355.8 74.73C351.86 74.73 348.44 75.51 345.56 77.07C342.66 78.63 340.43 80.84 338.88 83.7C337.32 86.56 336.54 89.94 336.54 93.85C336.54 97.76 337.34 101.22 338.94 104.12C340.54 107.02 342.8 109.26 345.74 110.85C348.67 112.43 352.15 113.23 356.17 113.23C361.01 113.23 365.02 112.1 368.2 109.87C371.38 107.62 373.38 104.53 374.2 100.58H363.98C362.91 103.58 360.28 105.09 356.1 105.09C353.31 105.09 351.08 104.37 349.42 102.92C347.76 101.48 346.72 99.39 346.31 96.63H374.31V93.17H374.32ZM346.57 89.84C347.67 85.15 350.77 82.81 355.86 82.81C360.95 82.81 363.83 85.16 364.54 89.84H346.57Z" fill="white"/>
<path d="M412.35 85.58V81.51H409.76C408.45 79.34 406.69 77.66 404.47 76.49C402.25 75.32 399.61 74.73 396.53 74.73C390.99 74.73 386.63 76.43 383.45 79.85C380.27 83.27 378.68 87.85 378.68 93.61C378.68 97.47 379.39 100.81 380.81 103.63C382.22 106.45 384.21 108.63 386.77 110.17C389.34 111.71 392.36 112.48 395.85 112.48C401.27 112.48 405.12 110.47 407.42 106.44H407.73V111.37C407.73 114.12 406.88 116.24 405.18 117.7C403.47 119.15 401.02 119.88 397.82 119.88C393.1 119.88 390.25 118.36 389.27 115.32H378.44C379.09 119.31 381.16 122.42 384.62 124.66C388.09 126.91 392.59 128.02 398.13 128.02C404.36 128.02 409.17 126.58 412.56 123.71C415.94 120.83 417.63 116.75 417.63 111.49V85.58H412.34H412.35ZM407.43 94.83C407.43 97.54 406.63 99.69 405 101.24C403.38 102.81 401.17 103.59 398.39 103.59C395.4 103.59 393.07 102.72 391.4 101C389.74 99.27 388.91 96.83 388.91 93.66C388.91 90.49 389.74 88.03 391.4 86.26C393.07 84.49 395.39 83.6 398.39 83.6C401.18 83.6 403.38 84.38 405 85.92C406.62 87.46 407.43 89.57 407.43 92.24V94.83Z" fill="white"/>
<path d="M464.17 93.17C464.17 87.45 462.53 82.95 459.24 79.66C455.96 76.37 451.42 74.73 445.64 74.73C441.7 74.73 438.29 75.51 435.4 77.07C432.5 78.63 430.28 80.84 428.72 83.7C427.16 86.56 426.38 89.94 426.38 93.85C426.38 97.76 427.18 101.22 428.78 104.12C430.38 107.02 432.65 109.26 435.58 110.85C438.51 112.43 441.99 113.23 446.01 113.23C450.85 113.23 454.86 112.1 458.04 109.87C461.22 107.62 463.22 104.53 464.04 100.58H453.82C452.75 103.58 450.12 105.09 445.94 105.09C443.15 105.09 440.93 104.37 439.26 102.92C437.6 101.48 436.56 99.39 436.15 96.63H464.15V93.17H464.17ZM436.42 89.84C437.52 85.15 440.62 82.81 445.71 82.81C450.8 82.81 453.69 85.16 454.39 89.84H436.42Z" fill="white"/>
<path d="M422.45 76.1699H412.36V86.2899H422.45V76.1699Z" fill="white"/>
<path d="M218.64 154.81C218.15 153.87 217.46 153.16 216.56 152.66C215.67 152.16 214.6 151.92 213.38 151.92C212.26 151.92 211.25 152.09 210.36 152.45C209.46 152.81 208.68 153.3 208.01 153.94C207.34 154.58 206.78 155.33 206.33 156.19C205.88 157.06 205.55 158 205.33 159.02C205.11 160.04 205 161.12 205 162.24C205 163.49 205.25 164.58 205.77 165.49C206.28 166.4 207 167.1 207.9 167.59C208.81 168.08 209.86 168.33 211.05 168.33C212.24 168.33 213.22 168.15 214.12 167.8C215.02 167.45 215.8 166.95 216.46 166.31C217.12 165.67 217.67 164.93 218.1 164.07C218.53 163.21 218.85 162.29 219.07 161.29C219.28 160.29 219.39 159.26 219.39 158.18C219.39 156.86 219.14 155.73 218.65 154.8L218.64 154.81ZM214.93 160.19C214.82 160.84 214.67 161.45 214.47 162.01C214.26 162.57 214.01 163.07 213.71 163.5C213.41 163.93 213.06 164.26 212.68 164.51C212.3 164.75 211.87 164.87 211.39 164.87C210.67 164.87 210.14 164.65 209.8 164.21C209.45 163.77 209.28 163.11 209.28 162.25C209.28 161.67 209.33 161.07 209.43 160.44C209.53 159.81 209.68 159.2 209.87 158.61C210.07 158.02 210.32 157.48 210.62 157C210.92 156.52 211.28 156.13 211.69 155.84C212.1 155.55 212.56 155.41 213.08 155.41C213.6 155.41 213.98 155.53 214.27 155.77C214.57 156.01 214.78 156.34 214.91 156.76C215.04 157.18 215.1 157.66 215.1 158.2C215.1 158.88 215.04 159.55 214.94 160.2L214.93 160.19Z" fill="white"/>
<path d="M233.08 146.04C232.53 145.91 231.93 145.85 231.28 145.85C230.51 145.85 229.81 145.94 229.18 146.12C228.55 146.3 228 146.59 227.52 146.99C227.04 147.39 226.63 147.93 226.29 148.59C225.94 149.25 225.67 150.06 225.46 151.03L225.2 152.22L222.61 153.41L222.19 155.46H224.49L221.61 169.13C221.43 169.97 221.12 170.58 220.69 170.96C220.26 171.34 219.75 171.54 219.17 171.54C218.9 171.54 218.63 171.51 218.38 171.47C218.13 171.42 217.85 171.35 217.55 171.25V174.68C217.84 174.77 218.21 174.86 218.66 174.93C219.11 175 219.56 175.03 220.01 175.03C221.2 175.03 222.18 174.8 222.94 174.32C223.71 173.85 224.32 173.21 224.75 172.42C225.19 171.62 225.51 170.74 225.7 169.78L228.74 155.47H231.85L232.54 152.22H229.44L229.61 151.34C229.72 150.73 229.95 150.23 230.27 149.85C230.6 149.48 231.03 149.28 231.57 149.28C231.95 149.28 232.29 149.32 232.59 149.41C232.89 149.49 233.18 149.6 233.45 149.72L234.58 146.55C234.12 146.33 233.61 146.16 233.06 146.04H233.08Z" fill="white"/>
<path d="M251.62 147.25H246.26L238.96 168.05H243.68L245.18 163.12H252.71L254.21 168.05H258.93L251.61 147.25H251.62ZM246.29 159.44L247.77 154.62C247.84 154.4 247.94 154.04 248.09 153.53C248.24 153.02 248.4 152.48 248.57 151.91C248.73 151.34 248.86 150.86 248.96 150.47C249.05 150.86 249.18 151.31 249.33 151.84C249.48 152.36 249.64 152.88 249.8 153.38C249.95 153.89 250.08 154.3 250.17 154.62L251.67 159.44H246.29Z" fill="white"/>
<path d="M270.77 151.95C270.48 151.93 270.23 151.92 270.01 151.92C269.31 151.92 268.66 152.05 268.07 152.32C267.47 152.59 266.94 152.95 266.47 153.4C266 153.85 265.61 154.34 265.31 154.88H265.1L264.46 152.21H261.2V168.05H265.51V159.99C265.51 159.24 265.63 158.61 265.87 158.1C266.11 157.59 266.44 157.17 266.85 156.85C267.27 156.54 267.73 156.31 268.26 156.16C268.78 156.02 269.32 155.95 269.88 155.95C270.07 155.95 270.29 155.95 270.55 155.98C270.81 156.01 271.01 156.04 271.15 156.09L271.47 152.04C271.29 152 271.06 151.97 270.77 151.95Z" fill="white"/>
<path d="M282.37 164.75C281.93 164.84 281.47 164.89 280.99 164.89C280.42 164.89 279.97 164.74 279.62 164.45C279.28 164.15 279.11 163.7 279.11 163.09V155.46H283.53V152.21H279.11V148.84H276.36L275.12 152.18L272.74 153.63V155.46H274.8V163.09C274.8 164.45 275.02 165.51 275.45 166.27C275.88 167.03 276.46 167.57 277.22 167.87C277.97 168.18 278.81 168.33 279.76 168.33C280.57 168.33 281.32 168.26 282 168.12C282.68 167.98 283.25 167.81 283.72 167.61V164.39C283.28 164.53 282.83 164.65 282.38 164.75H282.37Z" fill="white"/>
<path d="M297.39 161.06C297.03 160.47 296.52 159.97 295.86 159.57C295.21 159.17 294.42 158.78 293.53 158.41C292.61 158.03 291.91 157.72 291.43 157.48C290.95 157.24 290.63 157.02 290.47 156.82C290.3 156.62 290.22 156.39 290.22 156.14C290.22 155.79 290.38 155.53 290.7 155.36C291.02 155.19 291.5 155.1 292.13 155.1C292.85 155.1 293.55 155.21 294.24 155.43C294.93 155.65 295.67 155.93 296.45 156.27L297.75 153.15C296.81 152.72 295.89 152.4 295 152.2C294.11 152 293.17 151.91 292.19 151.91C290.29 151.91 288.77 152.28 287.63 153.02C286.5 153.76 285.93 154.87 285.93 156.33C285.93 157.23 286.08 157.96 286.39 158.55C286.69 159.13 287.17 159.63 287.8 160.06C288.44 160.49 289.25 160.91 290.24 161.32C291.26 161.75 292.02 162.11 292.5 162.37C292.98 162.64 293.3 162.88 293.44 163.09C293.59 163.3 293.66 163.54 293.66 163.81C293.66 164.22 293.48 164.54 293.12 164.79C292.76 165.04 292.16 165.17 291.32 165.17C290.57 165.17 289.71 165.04 288.72 164.79C287.74 164.54 286.82 164.22 285.96 163.84V167.41C286.76 167.74 287.55 167.98 288.35 168.12C289.14 168.26 290.08 168.34 291.18 168.34C292.67 168.34 293.92 168.15 294.91 167.76C295.91 167.38 296.66 166.82 297.16 166.08C297.67 165.34 297.92 164.43 297.92 163.35C297.92 162.41 297.74 161.65 297.38 161.06H297.39Z" fill="white"/>
<path d="M320.16 153.27C319.03 152.35 317.41 151.89 315.28 151.89C314.17 151.89 313.1 152.02 312.05 152.27C311.01 152.53 310.07 152.88 309.23 153.32L310.66 156.24C311.39 155.91 312.13 155.64 312.87 155.42C313.6 155.2 314.35 155.09 315.12 155.09C315.89 155.09 316.5 155.28 316.93 155.67C317.36 156.06 317.58 156.67 317.58 157.5V158.19L314.84 158.28C312.48 158.36 310.71 158.8 309.54 159.6C308.36 160.4 307.77 161.63 307.77 163.32C307.77 164.46 307.98 165.4 308.41 166.15C308.83 166.89 309.42 167.44 310.15 167.8C310.89 168.16 311.73 168.34 312.66 168.34C313.54 168.34 314.28 168.26 314.9 168.08C315.51 167.91 316.06 167.65 316.52 167.29C316.99 166.93 317.46 166.47 317.9 165.9H318.02L318.85 168.05H321.86V157.5C321.86 155.61 321.29 154.2 320.17 153.28L320.16 153.27ZM317.58 162.02C317.58 163.03 317.26 163.81 316.63 164.36C315.99 164.91 315.21 165.18 314.29 165.18C313.67 165.18 313.16 165.04 312.77 164.76C312.39 164.48 312.19 164.01 312.19 163.35C312.19 162.59 312.46 161.98 313 161.52C313.54 161.06 314.51 160.81 315.9 160.77L317.57 160.71V162.01L317.58 162.02Z" fill="white"/>
<path d="M339.34 153.3C338.32 152.38 336.96 151.92 335.27 151.92C334.61 151.92 333.97 152 333.36 152.16C332.74 152.32 332.18 152.57 331.68 152.91C331.17 153.25 330.75 153.69 330.42 154.24H330.18L329.6 152.21H326.31V168.05H330.62V160.6C330.62 158.91 330.86 157.62 331.34 156.72C331.82 155.83 332.72 155.38 334.04 155.38C334.91 155.38 335.56 155.67 335.97 156.24C336.38 156.82 336.59 157.67 336.59 158.81V168.06H340.9V157.73C340.9 155.7 340.39 154.23 339.36 153.31L339.34 153.3Z" fill="white"/>
<path d="M354.8 146.01V151.08C354.8 151.7 354.84 152.31 354.92 152.9C355 153.49 355.06 153.94 355.12 154.24H354.98C354.69 153.81 354.33 153.42 353.91 153.07C353.49 152.72 352.99 152.44 352.42 152.23C351.84 152.02 351.18 151.92 350.43 151.92C348.62 151.92 347.16 152.62 346.03 154.01C344.91 155.4 344.35 157.46 344.35 160.17C344.35 162.88 344.9 164.88 346.01 166.27C347.12 167.65 348.55 168.35 350.31 168.35C351.07 168.35 351.74 168.25 352.3 168.04C352.87 167.83 353.35 167.55 353.76 167.2C354.17 166.84 354.51 166.45 354.78 166.02H354.96L355.79 168.07H359.1V146.03H354.78L354.8 146.01ZM355.1 160.65C355.07 162.07 354.81 163.13 354.33 163.83C353.84 164.54 353.01 164.89 351.83 164.89C350.84 164.89 350.08 164.5 349.53 163.72C348.99 162.93 348.72 161.77 348.72 160.22C348.72 158.67 348.99 157.49 349.53 156.67C350.07 155.85 350.81 155.44 351.76 155.44C353.04 155.44 353.92 155.85 354.39 156.67C354.86 157.48 355.1 158.66 355.1 160.21V160.67V160.65Z" fill="white"/>
<path d="M387.33 151.91C386.45 150.4 385.22 149.27 383.63 148.5C382.03 147.73 380.16 147.34 377.99 147.34H371.5V168.05H377.35C379.73 168.05 381.76 167.66 383.44 166.87C385.12 166.08 386.41 164.91 387.3 163.34C388.19 161.78 388.63 159.83 388.63 157.5C388.63 155.17 388.2 153.42 387.32 151.91H387.33ZM382.53 162.71C381.49 163.85 379.9 164.42 377.76 164.42H375.88V150.94H378.21C379.49 150.94 380.57 151.17 381.44 151.65C382.31 152.12 382.97 152.85 383.42 153.84C383.87 154.83 384.09 156.09 384.09 157.61C384.09 159.87 383.57 161.57 382.53 162.71Z" fill="white"/>
<path d="M406.18 159.11C406.18 157.57 405.89 156.27 405.32 155.2C404.74 154.13 403.93 153.32 402.87 152.76C401.82 152.2 400.56 151.92 399.1 151.92C397.64 151.92 396.3 152.23 395.19 152.85C394.07 153.47 393.19 154.39 392.57 155.63C391.94 156.86 391.63 158.4 391.63 160.26C391.63 162.12 391.98 163.59 392.67 164.79C393.36 165.99 394.32 166.88 395.54 167.47C396.76 168.05 398.16 168.35 399.74 168.35C400.95 168.35 401.99 168.26 402.84 168.08C403.69 167.9 404.51 167.62 405.29 167.23V163.89C404.41 164.31 403.54 164.61 402.7 164.83C401.86 165.04 400.94 165.14 399.93 165.14C398.71 165.14 397.76 164.79 397.08 164.1C396.4 163.4 396.03 162.45 395.99 161.23H406.18V159.13V159.11ZM396.09 158.33C396.17 157.17 396.49 156.33 397.04 155.79C397.59 155.25 398.28 154.98 399.13 154.98C399.81 154.98 400.36 155.12 400.8 155.42C401.23 155.71 401.57 156.11 401.79 156.61C402.01 157.11 402.13 157.68 402.14 158.33H396.09Z" fill="white"/>
<path d="M420.17 161.06C419.81 160.47 419.3 159.97 418.64 159.57C417.98 159.17 417.2 158.78 416.31 158.41C415.38 158.03 414.69 157.72 414.21 157.48C413.73 157.24 413.41 157.02 413.25 156.82C413.08 156.62 413 156.39 413 156.14C413 155.79 413.16 155.53 413.48 155.36C413.8 155.19 414.28 155.1 414.91 155.1C415.63 155.1 416.33 155.21 417.02 155.43C417.71 155.65 418.45 155.93 419.23 156.27L420.53 153.15C419.59 152.72 418.67 152.4 417.78 152.2C416.89 152 415.95 151.91 414.97 151.91C413.07 151.91 411.55 152.28 410.41 153.02C409.28 153.76 408.71 154.87 408.71 156.33C408.71 157.23 408.86 157.96 409.17 158.55C409.48 159.13 409.95 159.63 410.59 160.06C411.23 160.49 412.04 160.91 413.03 161.32C414.05 161.75 414.81 162.11 415.29 162.37C415.77 162.64 416.09 162.88 416.23 163.09C416.37 163.3 416.45 163.54 416.45 163.81C416.45 164.22 416.27 164.54 415.91 164.79C415.55 165.04 414.95 165.17 414.1 165.17C413.36 165.17 412.5 165.04 411.51 164.79C410.52 164.54 409.61 164.22 408.75 163.84V167.41C409.55 167.74 410.35 167.98 411.14 168.12C411.93 168.26 412.87 168.34 413.97 168.34C415.46 168.34 416.7 168.15 417.7 167.76C418.7 167.38 419.45 166.82 419.95 166.08C420.46 165.34 420.71 164.43 420.71 163.35C420.71 162.41 420.53 161.65 420.17 161.06Z" fill="white"/>
<path d="M427.89 146.45C427.43 146.15 426.88 146.01 426.23 146.01C425.58 146.01 425.03 146.15 424.57 146.45C424.11 146.75 423.88 147.3 423.88 148.12C423.88 148.94 424.11 149.48 424.57 149.79C425.03 150.09 425.58 150.25 426.23 150.25C426.88 150.25 427.42 150.1 427.89 149.79C428.35 149.48 428.58 148.93 428.58 148.12C428.58 147.31 428.35 146.75 427.89 146.45ZM424.07 152.21V168.05H428.38V152.21H424.07Z" fill="white"/>
<path d="M446.65 152.21H441.14C441.03 152.18 440.81 152.14 440.48 152.1C440.16 152.05 439.8 152.01 439.41 151.97C439.03 151.93 438.69 151.91 438.4 151.91C437.02 151.91 435.84 152.12 434.87 152.55C433.9 152.98 433.17 153.59 432.66 154.4C432.16 155.21 431.91 156.19 431.91 157.34C431.91 158.42 432.15 159.35 432.63 160.14C433.12 160.94 433.78 161.51 434.6 161.87C433.94 162.26 433.44 162.65 433.09 163.05C432.74 163.45 432.57 163.95 432.57 164.56C432.57 165.04 432.73 165.5 433.07 165.93C433.4 166.36 433.79 166.67 434.23 166.86C433.08 167.14 432.21 167.59 431.62 168.24C431.03 168.88 430.73 169.68 430.73 170.63C430.73 172.01 431.31 173.09 432.47 173.87C433.63 174.64 435.32 175.02 437.52 175.02C440.41 175.02 442.62 174.51 444.16 173.49C445.7 172.47 446.47 171.03 446.47 169.19C446.47 167.74 446.02 166.65 445.1 165.9C444.19 165.15 442.87 164.78 441.14 164.78H438.46C437.93 164.78 437.49 164.74 437.14 164.67C436.79 164.6 436.52 164.5 436.35 164.36C436.18 164.22 436.09 164.05 436.09 163.85C436.09 163.65 436.15 163.44 436.26 163.26C436.38 163.07 436.54 162.89 436.76 162.72C437.2 162.77 437.68 162.8 438.17 162.83C440.27 162.83 441.92 162.35 443.1 161.4C444.28 160.45 444.88 159.13 444.88 157.43C444.88 156.99 444.82 156.56 444.71 156.17C444.6 155.77 444.43 155.4 444.2 155.05L446.67 154.41V152.21H446.65ZM437.24 168.25H439.47C440.19 168.25 440.79 168.3 441.26 168.39C441.72 168.48 442.07 168.65 442.3 168.88C442.53 169.11 442.65 169.42 442.65 169.82C442.65 170.31 442.45 170.73 442.06 171.09C441.67 171.45 441.1 171.72 440.36 171.91C439.62 172.1 438.74 172.2 437.71 172.2C436.68 172.2 435.88 172.03 435.31 171.69C434.74 171.35 434.46 170.88 434.46 170.29C434.46 169.88 434.58 169.53 434.82 169.22C435.07 168.92 435.4 168.68 435.82 168.5C436.24 168.33 436.71 168.25 437.24 168.25ZM440.18 159.44C439.81 159.94 439.21 160.19 438.4 160.19C437.59 160.19 437 159.94 436.61 159.44C436.22 158.94 436.02 158.26 436.02 157.4C436.02 156.45 436.22 155.73 436.61 155.25C437.01 154.77 437.6 154.53 438.39 154.53C439.18 154.53 439.76 154.77 440.15 155.25C440.54 155.73 440.73 156.44 440.73 157.4C440.73 158.26 440.54 158.94 440.16 159.44H440.18Z" fill="white"/>
<path d="M462.3 153.3C461.28 152.38 459.92 151.92 458.23 151.92C457.57 151.92 456.93 152 456.32 152.16C455.7 152.32 455.14 152.57 454.64 152.91C454.13 153.25 453.71 153.69 453.38 154.24H453.14L452.56 152.21H449.27V168.05H453.58V160.6C453.58 158.91 453.82 157.62 454.3 156.72C454.78 155.83 455.68 155.38 457 155.38C457.88 155.38 458.52 155.67 458.93 156.24C459.34 156.82 459.54 157.67 459.54 158.81V168.06H463.85V157.73C463.85 155.7 463.34 154.23 462.31 153.31L462.3 153.3Z" fill="white"/>
</g>
<defs>
<clipPath id="clip0_0_468">
<rect width="464.62" height="175.02" fill="white"/>
</clipPath>
</defs>
</svg>
